<?xml version="1.0" encoding="utf-8"?>
<!-- Generator: Adobe Illustrator 20.1.0, SVG Export Plug-In . SVG Version: 6.00 Build 0)  -->
<svg version="1.1" xmlns="http://www.w3.org/2000/svg" xmlns:xlink="http://www.w3.org/1999/xlink" x="0px" y="0px"
	 viewBox="0 0 369 57.1" style="enable-background:new 0 0 369 57.1;" xml:space="preserve">
<style type="text/css">
	.st0{fill:#231F20;}
	.st1{fill:#039BE5;}
</style>
<g id="Layer_2">
</g>
<g id="Layer_1">
	<g>
		<path class="st0" d="M85.3,40c0-0.7,0.3-1.5,0.8-2.2c0.6-0.8,1.2-1.1,1.9-1.1c0.4,0,0.9,0.2,1.4,0.6c0.5,0.4,1,0.8,1.5,1.3
			c0.5,0.5,1.2,0.9,2.1,1.3c0.9,0.4,2,0.6,3.1,0.6c1.5,0,2.8-0.4,3.8-1.1c1-0.7,1.5-1.7,1.5-3.1c0-1-0.3-1.8-0.8-2.6
			c-0.6-0.8-1.3-1.4-2.2-1.9s-1.9-1-3-1.4c-1.1-0.5-2.2-1-3.3-1.6c-1.1-0.6-2.1-1.2-3-1.9c-0.9-0.7-1.6-1.7-2.2-2.9
			c-0.6-1.2-0.8-2.6-0.8-4.1c0-1.7,0.3-3.2,1-4.6c0.7-1.3,1.6-2.3,2.8-3.1c1.2-0.7,2.4-1.3,3.7-1.6c1.3-0.3,2.7-0.5,4.2-0.5
			c0.8,0,1.7,0.1,2.6,0.2c0.9,0.1,1.9,0.3,3,0.6c1,0.3,1.9,0.7,2.5,1.2c0.7,0.6,1,1.2,1,2c0,0.7-0.2,1.4-0.7,2.2
			c-0.4,0.8-1.1,1.1-1.8,1.1c-0.3,0-1.1-0.3-2.4-0.9c-1.3-0.6-2.7-0.9-4.3-0.9c-1.7,0-3.1,0.3-4,1c-0.9,0.7-1.4,1.6-1.4,2.7
			c0,0.9,0.4,1.7,1.2,2.4c0.8,0.7,1.7,1.2,2.9,1.7c1.1,0.4,2.4,1,3.7,1.6c1.3,0.7,2.6,1.4,3.7,2.1c1.1,0.8,2.1,1.9,2.9,3.3
			c0.8,1.5,1.2,3.2,1.2,5.1c0,3.3-1,5.8-3.1,7.6c-2.1,1.8-4.9,2.7-8.3,2.7c-3,0-5.6-0.6-7.8-1.9C86.4,42.9,85.3,41.5,85.3,40z"/>
		<path class="st0" d="M115.1,13.2c0-0.7,0.2-1.3,0.5-1.9s0.8-0.8,1.5-0.8h20.3c0.6,0,1.1,0.3,1.5,0.8s0.5,1.2,0.5,1.9
			c0,0.7-0.2,1.4-0.5,1.9c-0.4,0.5-0.8,0.8-1.4,0.8h-7v27.6c0,0.6-0.3,1.1-0.9,1.4s-1.4,0.5-2.2,0.5c-0.9,0-1.6-0.2-2.2-0.5
			c-0.6-0.4-0.9-0.8-0.9-1.4V15.9h-7.1c-0.6,0-1.1-0.3-1.4-0.8C115.3,14.6,115.1,14,115.1,13.2z"/>
		<path class="st0" d="M146.9,34.8V21.5c0-3.8,1-6.6,3-8.4c2-1.8,4.8-2.6,8.2-2.6c3.4,0,6.2,0.9,8.2,2.6c2,1.8,3.1,4.5,3.1,8.4v13.4
			c0,3.8-1,6.6-3.1,8.4c-2,1.8-4.8,2.6-8.2,2.6c-3.4,0-6.2-0.9-8.2-2.6C147.9,41.4,146.9,38.7,146.9,34.8z M153.1,34.8
			c0,3.7,1.7,5.5,5,5.5c3.4,0,5-1.8,5-5.5V21.5c0-3.7-1.7-5.5-5-5.5c-3.3,0-5,1.8-5,5.5V34.8z"/>
		<path class="st0" d="M178.9,43.6V12.4c0-0.5,0.2-1,0.6-1.3c0.4-0.4,0.9-0.6,1.4-0.6h9.5c7.6,0,11.4,3.3,11.4,10
			c0,2.6-0.6,4.7-1.7,6.3c-1.1,1.6-2.7,2.7-4.6,3.3l6.3,11.7c0.2,0.2,0.2,0.4,0.2,0.8c0,0.8-0.4,1.5-1.2,2.2s-1.7,1-2.6,1
			c-0.9,0-1.6-0.5-2.2-1.5l-6.8-13.2h-4v12.5c0,0.6-0.3,1.1-0.9,1.4c-0.6,0.4-1.3,0.5-2.2,0.5c-0.8,0-1.6-0.2-2.2-0.5
			C179.2,44.7,178.9,44.2,178.9,43.6z M185.1,26.2h5.3c3.4,0,5.1-1.7,5.1-5.1c0-3.4-1.7-5.1-5.1-5.1h-5.3V26.2z"/>
		<path class="st0" d="M210.8,43.6v-30c0-1.1,0.3-1.8,0.9-2.4c0.6-0.5,1.3-0.8,2.2-0.8c1.2,0,2.1,0.2,2.7,0.6
			c0.6,0.4,1.3,1.3,2.1,2.7l5.9,10.8l5.9-10.8c0.8-1.4,1.5-2.3,2.1-2.7c0.7-0.4,1.6-0.6,2.8-0.6c0.9,0,1.6,0.3,2.2,0.8
			c0.6,0.5,0.9,1.3,0.9,2.4v30c0,0.6-0.3,1.1-0.9,1.4c-0.6,0.4-1.4,0.5-2.2,0.5c-0.9,0-1.6-0.2-2.2-0.5c-0.6-0.4-0.9-0.8-0.9-1.4
			V22.9l-5.6,10c-0.4,0.8-1.2,1.2-2.1,1.2c-0.9,0-1.6-0.4-2.1-1.2l-5.5-10.4v21c0,0.6-0.3,1.1-0.9,1.4c-0.6,0.4-1.4,0.5-2.2,0.5
			c-0.9,0-1.6-0.2-2.2-0.5C211.1,44.7,210.8,44.2,210.8,43.6z"/>
		<path class="st0" d="M248.5,43.6V12.4c0-0.6,0.3-1.1,0.9-1.4c0.6-0.3,1.3-0.5,2.2-0.5c0.9,0,1.6,0.2,2.2,0.5
			c0.6,0.3,0.9,0.8,0.9,1.4v12.5h10.8V12.4c0-0.6,0.3-1.1,0.9-1.4c0.6-0.3,1.3-0.5,2.2-0.5c0.9,0,1.6,0.2,2.2,0.5
			c0.6,0.3,0.9,0.8,0.9,1.4v31.2c0,0.6-0.3,1.1-0.9,1.4c-0.6,0.4-1.4,0.5-2.2,0.5c-0.9,0-1.6-0.2-2.2-0.5c-0.6-0.4-0.9-0.8-0.9-1.4
			V29.8h-10.8v13.8c0,0.6-0.3,1.1-0.9,1.4c-0.6,0.4-1.4,0.5-2.2,0.5c-0.9,0-1.6-0.2-2.2-0.5C248.8,44.7,248.5,44.2,248.5,43.6z"/>
		<path class="st0" d="M280.2,13.1c0-0.7,0.5-1.3,1.4-1.8c0.9-0.5,1.8-0.8,2.8-0.8c0.9,0,1.5,0.4,1.9,1.2l7.3,13.9l7.3-13.9
			c0.4-0.8,1.1-1.2,1.9-1.2c0.9,0,1.8,0.3,2.8,0.8c0.9,0.5,1.4,1.1,1.4,1.8c0,0.3,0,0.5-0.1,0.6l-9.9,17.2c-0.1,0.2-0.2,0.4-0.2,0.6
			v12.1c0,0.6-0.3,1.1-0.9,1.4c-0.6,0.4-1.3,0.5-2.2,0.5c-0.8,0-1.6-0.2-2.2-0.5c-0.6-0.4-0.9-0.8-0.9-1.4V31.5c0-0.3,0-0.5-0.1-0.6
			l-9.9-17.2C280.2,13.4,280.2,13.2,280.2,13.1z"/>
		<path class="st0" d="M315.2,43.6V12.4c0-0.5,0.3-1,0.8-1.3c0.5-0.4,1.2-0.6,2-0.6h8.5c3.4,0,6.2,0.9,8.2,2.6
			c2,1.8,3.1,4.5,3.1,8.4v13.1c0,3.8-1,6.6-3.1,8.4c-2,1.8-4.8,2.6-8.2,2.6H318c-0.8,0-1.5-0.2-2-0.6
			C315.5,44.6,315.2,44.1,315.2,43.6z M321.5,40.1h5c3.4,0,5-1.8,5-5.5V21.5c0-3.7-1.7-5.5-5-5.5h-5V40.1z"/>
		<path class="st0" d="M347.2,43.6V12.4c0-0.6,0.3-1.1,0.8-1.4c0.5-0.4,1.2-0.5,1.9-0.5h17.1c0.6,0,1.1,0.3,1.5,0.8
			c0.3,0.5,0.5,1.2,0.5,1.9c0,0.8-0.2,1.4-0.5,2c-0.4,0.5-0.8,0.8-1.4,0.8h-13.6v9.6h7.3c0.6,0,1.1,0.2,1.4,0.7
			c0.4,0.5,0.5,1.1,0.5,1.8c0,0.6-0.2,1.2-0.5,1.7s-0.8,0.7-1.5,0.7h-7.3v9.6h13.6c0.6,0,1.1,0.3,1.4,0.8c0.4,0.5,0.5,1.2,0.5,2
			c0,0.7-0.2,1.3-0.5,1.9c-0.3,0.5-0.8,0.8-1.5,0.8H350c-0.7,0-1.4-0.2-1.9-0.5C347.5,44.7,347.2,44.2,347.2,43.6z"/>
	</g>
	<path class="st1" d="M60.2,33.3L60.2,33.3c1.7-2.9,1.7-6.6,0-9.5L52,9.5C48.6,3.6,42.3,0,35.5,0h0L52,28.5h0
		c-6.8,0-13.1-3.6-16.5-9.5L27.3,4.8C25.6,1.8,22.4,0,19,0h0c-3.4,0-6.5,1.8-8.2,4.8L2.5,19c-3.4,5.9-3.4,13.1,0,19l0,0L19,9.5l0,0
		c3.4,5.9,3.4,13.1,0,19l-8.2,14.3c-1.7,2.9-1.7,6.6,0,9.5l0,0c1.7,2.9,4.8,4.8,8.2,4.8h16.5c6.8,0,13.1-3.6,16.5-9.5l0,0H19l0,0
		c3.4-5.9,9.7-9.5,16.5-9.5H52C55.4,38.1,58.5,36.3,60.2,33.3z"/>
</g>
</svg>
