<?xml version="1.0" standalone="no"?>
<!DOCTYPE svg PUBLIC "-//W3C//DTD SVG 20010904//EN"
 "http://www.w3.org/TR/2001/REC-SVG-20010904/DTD/svg10.dtd">
<svg version="1.0" xmlns="http://www.w3.org/2000/svg"
 width="512.000000pt" height="512.000000pt" viewBox="0 0 512.000000 512.000000"
 preserveAspectRatio="xMidYMid meet">
<metadata>
Created by potrace 1.14, written by Peter Selinger 2001-2017
</metadata>
<g transform="translate(0.000000,512.000000) scale(0.100000,-0.100000)"
fill="#000000" stroke="none">
<path d="M1468 4935 c-1 -2 -16 -6 -33 -8 -73 -14 -165 -46 -235 -85 -127 -70
-240 -183 -312 -312 -14 -25 -114 -197 -222 -384 -108 -186 -196 -340 -196
-342 0 -2 -15 -27 -33 -56 -19 -29 -37 -60 -40 -68 -4 -8 -17 -31 -28 -50
-244 -407 -313 -569 -354 -840 -15 -97 -17 -331 -3 -435 13 -103 56 -267 93
-360 44 -109 96 -215 106 -215 6 0 87 133 187 310 37 66 280 485 301 520 11
19 24 42 28 50 4 8 37 67 74 130 164 281 459 792 459 796 0 3 17 33 39 67 21
34 93 158 161 275 67 116 124 212 127 212 2 0 26 -46 52 -102 152 -324 190
-632 125 -996 -11 -60 -55 -202 -88 -282 -40 -99 -55 -128 -184 -350 -52 -91
-103 -178 -112 -195 -10 -16 -126 -217 -258 -446 -133 -230 -250 -437 -261
-460 -132 -293 -74 -637 146 -870 107 -113 227 -184 383 -225 l85 -23 835 3
c459 1 855 6 880 9 443 71 833 320 1085 692 29 44 52 82 49 84 -2 2 -618 4
-1369 4 l-1365 0 27 46 c109 188 327 401 535 522 198 116 445 196 658 215 25
2 394 4 820 5 707 2 783 3 862 20 270 56 491 249 584 511 59 167 56 388 -8
548 -27 68 -33 79 -236 430 -91 157 -173 299 -182 315 -265 465 -401 688 -469
770 -61 74 -223 225 -296 276 -173 123 -420 234 -583 263 -15 2 -50 9 -79 15
-67 13 -263 26 -263 17 0 -4 51 -96 114 -204 63 -108 189 -326 280 -484 91
-158 177 -308 191 -332 14 -25 54 -95 90 -156 36 -61 65 -113 65 -116 0 -3 9
-17 19 -32 15 -22 330 -565 416 -717 13 -22 59 -103 104 -180 44 -76 78 -141
76 -143 -5 -5 -122 -3 -151 2 -10 2 -39 7 -64 10 -74 10 -101 16 -180 37 -404
108 -744 368 -963 740 -53 89 -253 434 -294 505 -37 66 -222 385 -233 404 -6
8 -48 83 -96 165 -47 83 -104 174 -127 203 -108 141 -283 249 -462 286 -60 12
-267 21 -277 11z"/>
</g>
</svg>
