<?xml version="1.0" encoding="utf-8"?>
<!-- Generator: Adobe Illustrator 20.1.0, SVG Export Plug-In . SVG Version: 6.00 Build 0)  -->
<svg version="1.1" id="Layer_1" xmlns="http://www.w3.org/2000/svg" xmlns:xlink="http://www.w3.org/1999/xlink" x="0px" y="0px"
	 viewBox="0 0 61.5 57.1" style="enable-background:new 0 0 61.5 57.1;" xml:space="preserve">
<style type="text/css">
	.st0{fill:#039BE5;}
</style>
<path class="st0" d="M60.2,33.3L60.2,33.3c1.7-2.9,1.7-6.6,0-9.5L52,9.5C48.6,3.6,42.3,0,35.5,0h0L52,28.5h0
	c-6.8,0-13.1-3.6-16.5-9.5L27.3,4.8C25.6,1.8,22.4,0,19,0h0c-3.4,0-6.5,1.8-8.2,4.8L2.5,19c-3.4,5.9-3.4,13.1,0,19l0,0L19,9.5l0,0
	c3.4,5.9,3.4,13.1,0,19l-8.2,14.3c-1.7,2.9-1.7,6.6,0,9.5l0,0c1.7,2.9,4.8,4.8,8.2,4.8h16.5c6.8,0,13.1-3.6,16.5-9.5l0,0H19l0,0
	c3.4-5.9,9.7-9.5,16.5-9.5H52C55.4,38.1,58.5,36.3,60.2,33.3z"/>
</svg>
